:SAMPLES-PER-SECOND 30
:FULLY-SPECIFIED
:DEGREES
480
root  -39.7275 37.649 -31.7033 1.03564 -87.6451 40.1361
RightUpLeg  -73.4355 -15.6004 18.0378
RightLeg  36.9056 -1.20196 -1.24034
RightFoot  -4.59706 0.573289 -10.2167
RightToes  0.00048216 0.542163 -0.142577
Spine  71.7461 -5.53901 6.62857
Spine1  5.94232 0.833113 -7.16399
HEad  -38.6864 0.000866563 -4.46873
LeftShoulder1  1.68202 -18.9229 1.06684
LeftArm  -101.212 -63.1586 36.9547
LeftForeArm  12.3425 -17.0257 0.465765
LeftHand  -0.25398 0.0180481 5.50724
RightShoulder  0.781535 9.94074 -2.95153
RightArm  -87.698 58.3361 -16.4437
RightForeArm  -23.7669 21.0664 5.14065
RightHand  -5.02661 14.1777 -29.6418
LeftUpLeg  -71.7566 17.5755 -19.1099
LeftLeg  34.7989 1.66684 1.60866
LeftFoot  -4.93518 -0.174048 3.64099
LeftToes  1.06245e-005 4.65855e-005 -8.18504e-006
481
root  -39.6908 37.6175 -31.6986 -5.33392 -87.7399 46.3191
RightUpLeg  -73.2906 -15.2433 17.3507
RightLeg  37.1344 -1.52616 -1.51292
RightFoot  -4.81563 0.528783 -9.81186
RightToes  0.00048216 0.542163 -0.142577
Spine  71.6135 -5.381 6.61644
Spine1  6.17951 0.884108 -6.89858
HEad  -39.3059 -0.0403307 -4.40254
LeftShoulder1  1.81726 -19.4873 0.609939
LeftArm  -102.13 -63.8335 38.6002
LeftForeArm  15.5973 -17.0169 0.445511
LeftHand  -0.25398 0.0180481 5.50724
RightShoulder  0.831343 10.331 -2.72863
RightArm  -89.7233 58.425 -17.1953
RightForeArm  -22.3737 21.1388 5.08721
RightHand  -5.11861 14.4314 -29.7769
LeftUpLeg  -71.656 17.563 -19.1282
LeftLeg  35.0098 1.84662 1.75414
LeftFoot  -5.12325 -0.165794 3.62013
LeftToes  1.06245e-005 4.65855e-005 -8.18504e-006
482
root  -39.6247 37.5784 -31.6904 -8.57074 -87.8106 49.4083
RightUpLeg  -73.2147 -14.9038 16.8726
RightLeg  37.3024 -1.89652 -1.82367
RightFoot  -4.94829 0.509784 -9.6938
RightToes  0.00048216 0.542163 -0.142577
Spine  71.4134 -5.49643 6.6784
Spine1  6.50471 0.848199 -7.1041
HEad  -40.03 -0.0823545 -4.29546
LeftShoulder1  1.88647 -19.9255 0.445944
LeftArm  -101.908 -64.0674 41.8367
LeftForeArm  15.1967 -15.1887 1.57658
LeftHand  -0.25398 0.0180481 5.50724
RightShoulder  0.873537 10.4266 -2.42842
RightArm  -91.6046 58.9098 -18.5243
RightForeArm  -21.0977 20.625 4.7346
RightHand  -5.40013 15.1019 -30.3398
LeftUpLeg  -71.6762 17.5236 -19.0838
LeftLeg  35.2445 1.986 1.87251
LeftFoot  -5.31321 -0.158924 3.62594
LeftToes  1.06245e-005 4.65855e-005 -8.18504e-006
483
root  -39.5158 37.5363 -31.6843 -8.83008 -87.9598 49.4253
RightUpLeg  -73.0539 -14.5574 16.6265
RightLeg  37.3732 -2.26569 -2.13009
RightFoot  -5.03886 0.516836 -9.96987
RightToes  0.00048216 0.542163 -0.142577
Spine  71.3431 -5.66534 6.77303
Spine1  6.61273 0.834067 -7.40993
HEad  -40.2133 -0.225699 -4.303
LeftShoulder1  1.99214 -19.9795 -0.0439027
LeftArm  -101.734 -64.0994 45.0337
LeftForeArm  13.1862 -13.2143 2.40752
LeftHand  -0.25398 0.0180481 5.50724
RightShoulder  0.841115 9.86496 -2.40433
RightArm  -92.5921 60.1571 -19.6804
RightForeArm  -20.354 19.5323 4.05205
RightHand  -5.76766 15.7998 -31.2902
LeftUpLeg  -71.7702 17.5757 -18.9358
LeftLeg  35.5657 2.10312 1.98122
LeftFoot  -5.38906 -0.160055 3.70234
LeftToes  1.06245e-005 4.65855e-005 -8.18504e-006
484
root  -39.3604 37.4993 -31.6903 -13.3876 -88.0595 53.4941
RightUpLeg  -72.7574 -14.3013 16.2386
RightLeg  37.4718 -2.55189 -2.37207
RightFoot  -5.1262 0.515685 -10.0983
RightToes  0.00048216 0.542163 -0.142577
Spine  71.4496 -5.51306 6.83251
Spine1  6.51542 0.973417 -7.0959
HEad  -39.6432 -0.573909 -4.5576
LeftShoulder1  2.17201 -19.7883 -0.996918
LeftArm  -102.174 -64.3718 47.4341
LeftForeArm  11.0295 -11.9113 2.61334
LeftHand  -0.25398 0.0180481 5.50724
RightShoulder  0.840234 9.60946 -2.27396
RightArm  -92.135 60.7548 -21.753
RightForeArm  -21.8367 17.7128 3.04611
RightHand  -5.47128 15.2687 -30.4642
LeftUpLeg  -71.636 17.6705 -18.8483
LeftLeg  35.8133 2.26868 2.12476
LeftFoot  -5.33167 -0.164643 3.74803
LeftToes  1.06245e-005 4.65855e-005 -8.18504e-006
485
root  -39.1518 37.4694 -31.7118 -24.4955 -87.9161 63.842
RightUpLeg  -72.3771 -14.2502 15.5356
RightLeg  37.66 -2.71492 -2.52161
RightFoot  -5.17206 0.495743 -9.8131
RightToes  0.00048216 0.542163 -0.142577
Spine  71.5415 -5.09914 6.86325
Spine1  6.45622 1.20609 -6.20651
HEad  -38.8054 -1.04865 -4.90574
LeftShoulder1  2.37502 -19.8803 -1.93447
LeftArm  -102.554 -64.694 49.452
LeftForeArm  8.77425 -10.3439 2.71146
LeftHand  -0.25398 0.0180481 5.50724
RightShoulder  0.935787 10.1661 -1.77274
RightArm  -89.88 60.1523 -25.5914
RightForeArm  -25.8111 14.5797 1.81533
RightHand  -4.62384 13.8521 -27.8236
LeftUpLeg  -71.1201 17.6844 -18.9192
LeftLeg  35.853 2.46668 2.28085
LeftFoot  -5.17172 -0.170977 3.75041
LeftToes  1.06245e-005 4.65855e-005 -8.18504e-006
486
root  -38.8856 37.4498 -31.737 -32.3549 -87.6677 70.8163
RightUpLeg  -71.9044 -14.3211 14.9004
RightLeg  37.7024 -2.80181 -2.5969
RightFoot  -5.08096 0.484555 -9.45719
RightToes  0.00048216 0.542163 -0.142577
Spine  71.5521 -4.85595 6.90764
Spine1  6.2516 1.33461 -5.57106
HEad  -38.1575 -1.32119 -5.11831
LeftShoulder1  2.53797 -20.4913 -2.40682
LeftArm  -102.146 -64.509 51.2453
LeftForeArm  6.99561 -7.64824 2.78344
LeftHand  -0.25398 0.0180481 5.50724
RightShoulder  0.963238 10.5448 -1.76058
RightArm  -86.9233 60.0394 -29.6543
RightForeArm  -28.7102 9.68604 0.930761
RightHand  -4.21752 13.1555 -26.4155
LeftUpLeg  -70.4831 17.6732 -18.9738
LeftLeg  35.7357 2.60258 2.37732
LeftFoot  -4.85717 -0.190547 3.87866
LeftToes  1.06245e-005 4.65855e-005 -8.18504e-006
487
root  -38.5786 37.4544 -31.7496 -31.8934 -87.7026 69.5013
RightUpLeg  -71.2443 -14.3482 14.7665
RightLeg  37.2827 -2.87432 -2.61926
RightFoot  -4.79702 0.503117 -9.33604
RightToes  0.00048216 0.542163 -0.142577
Spine  71.6138 -4.97737 7.00575
Spine1  5.54586 1.32431 -5.66754
HEad  -37.7556 -1.22532 -5.18311
LeftShoulder1  2.61184 -21.3993 -2.30047
LeftArm  -100.362 -63.8025 52.2953
LeftForeArm  6.00175 -4.35767 2.70102
LeftHand  -0.25398 0.0180481 5.50724
RightShoulder  0.758398 10.0129 -3.19487
RightArm  -85.2955 61.5661 -32.0301
RightForeArm  -27.893 3.92894 0.68415
RightHand  -4.32931 12.9413 -27.3914
LeftUpLeg  -69.9983 17.8126 -18.7865
LeftLeg  35.4986 2.63546 2.38466
LeftFoot  -4.33492 -0.228941 4.16462
LeftToes  1.06245e-005 4.65855e-005 -8.18504e-006
488
root  -38.2662 37.4997 -31.7524 -26.6724 -87.9712 63.4637
RightUpLeg  -70.3599 -14.3731 15.0117
RightLeg  36.3871 -2.91717 -2.57483
RightFoot  -4.31271 0.54836 -9.37308
RightToes  0.00048216 0.542163 -0.142577
Spine  71.7184 -5.19426 7.18671
Spine1  4.57541 1.35247 -6.04412
HEad  -37.5535 -1.1442 -5.24108
LeftShoulder1  2.62108 -22.4571 -1.8498
LeftArm  -97.8255 -63.1273 52.4403
LeftForeArm  5.56897 -1.50532 2.47713
LeftHand  -0.25398 0.0180481 5.50724
RightShoulder  0.501153 9.44865 -5.16545
RightArm  -84.7761 63.3799 -33.2101
RightForeArm  -26.1314 -0.855348 0.382676
RightHand  -3.86948 10.973 -27.3429
LeftUpLeg  -69.5143 18.1352 -18.4637
LeftLeg  34.9905 2.57033 2.29748
LeftFoot  -3.66508 -0.275927 4.44145
LeftToes  1.06245e-005 4.65855e-005 -8.18504e-006
489
root  -37.9749 37.5927 -31.7688 -24.5762 -88.0894 60.4655
RightUpLeg  -69.2887 -14.6082 15.1794
RightLeg  35.2525 -2.85581 -2.43076
RightFoot  -3.60607 0.618501 -9.47729
RightToes  0.00048216 0.542163 -0.142577
Spine  71.6522 -5.22518 7.41952
Spine1  3.99158 1.52634 -6.12204
HEad  -37.4815 -1.54952 -5.34948
LeftShoulder1  2.65069 -23.5895 -1.48618
LeftArm  -95.6501 -63.0525 51.9095
LeftForeArm  5.38816 0.581682 2.19334
LeftHand  -0.25398 0.0180481 5.50724
RightShoulder  0.398549 9.70984 -6.15262
RightArm  -85.6231 63.8285 -34.5044
RightForeArm  -24.5057 -3.60479 -0.12603
RightHand  -2.47933 6.67435 -23.7861
LeftUpLeg  -68.6578 18.5502 -18.3653
LeftLeg  34.0247 2.37736 2.08788
LeftFoot  -2.87917 -0.330193 4.69494
LeftToes  1.06245e-005 4.65855e-005 -8.18504e-006
490
root  -37.7109 37.7339 -31.8128 -29.7559 -87.9355 64.5374
RightUpLeg  -67.9821 -15.1546 15.1268
RightLeg  33.9842 -2.6215 -2.15795
RightFoot  -2.67754 0.722882 -9.74588
RightToes  0.00048216 0.542163 -0.142577
Spine  71.3064 -5.14934 7.63228
Spine1  4.03936 1.72856 -5.99443
HEad  -37.2898 -2.2524 -5.43036
LeftShoulder1  2.78318 -24.5607 -1.62807
LeftArm  -93.3428 -63.7726 50.2417
LeftForeArm  5.23318 2.07525 1.77735
LeftHand  -0.25398 0.0180481 5.50724
RightShoulder  0.43076 10.2569 -6.02256
RightArm  -86.2882 63.5886 -35.4518
RightForeArm  -23.1672 -4.42763 -0.428174
RightHand  -1.39822 2.77691 -20.1673
LeftUpLeg  -67.262 19.0573 -18.6027
LeftLeg  32.578 2.05345 1.7706
LeftFoot  -1.87589 -0.406916 5.0464
LeftToes  1.06245e-005 4.65855e-005 -8.18504e-006
491
root  -37.4751 37.9201 -31.8699 -35.9029 -87.6924 69.3317
RightUpLeg  -66.2987 -15.9513 15.0889
RightLeg  32.4759 -2.16321 -1.73536
RightFoot  -1.62568 0.859407 -10.2021
RightToes  0.00048216 0.542163 -0.142577
Spine  70.7491 -5.14271 7.81783
Spine1  4.48427 1.85138 -5.97067
HEad  -36.8217 -2.70199 -5.49012
LeftShoulder1  3.12738 -25.4324 -2.62022
LeftArm  -88.9005 -64.8377 45.9433
LeftForeArm  5.17745 2.9035 1.13218
LeftHand  -0.25398 0.0180481 5.50724
RightShoulder  0.519247 10.4682 -5.34814
RightArm  -84.8921 64.1085 -34.7186
RightForeArm  -20.3095 -4.04231 -0.0780012
RightHand  -1.43907 2.56361 -20.9295
LeftUpLeg  -65.3701 19.6968 -18.8478
LeftLeg  30.7626 1.70129 1.44467
LeftFoot  -0.671305 -0.497326 5.36671
LeftToes  1.06245e-005 4.65855e-005 -8.18504e-006
492
root  -37.2719 38.142 -31.9202 -39.3951 -87.5138 71.243
RightUpLeg  -64.1913 -16.9445 15.174
RightLeg  30.6977 -1.47064 -1.18862
RightFoot  -0.586386 1.0052 -10.6787
RightToes  0.00048216 0.542163 -0.142577
Spine  70.0593 -5.17967 7.9907
Spine1  5.09047 1.90744 -5.92588
HEad  -36.3012 -2.76575 -5.73034
LeftShoulder1  3.83175 -26.5128 -4.79538
LeftArm  -80.9908 -65.3949 38.0398
LeftForeArm  5.17233 2.90211 0.346338
LeftHand  -0.25398 0.0180481 5.50724
RightShoulder  0.686958 10.731 -4.08512
RightArm  -80.7278 65.4056 -31.6414
RightForeArm  -14.2072 -2.95651 0.71989
RightHand  -2.19226 4.99572 -24.5038
LeftUpLeg  -62.9978 20.3596 -18.7477
LeftLeg  28.708 1.4382 1.19865
LeftFoot  0.484977 -0.564866 5.4234
LeftToes  1.06245e-005 4.65855e-005 -8.18504e-006
